<?xml version="1.0" encoding="iso-8859-1"?>
<svg xmlns="http://www.w3.org/2000/svg" xmlns:xlink="http://www.w3.org/1999/xlink" version="1.1" viewBox="0 0 21.5 21.5" enable-background="new 0 0 21.5 21.5" width="512px" height="512px">
  <g>
    <path fill-rule="evenodd" d="M0.75,11.5H10v9.25c0,0.414,0.336,0.75,0.75,0.75   c0.414,0,0.75-0.336,0.75-0.75V11.5h9.25c0.414,0,0.75-0.336,0.75-0.75c0-0.414-0.336-0.75-0.75-0.75H11.5V0.75   C11.5,0.336,11.164,0,10.75,0C10.336,0,10,0.336,10,0.75V10H0.75C0.336,10,0,10.336,0,10.75C0,11.164,0.336,11.5,0.75,11.5z" fill="#FFFFFF"/>
  </g>
</svg>
